<svg width="730" height="244" viewBox="0 0 730 244" xmlns="http://www.w3.org/2000/svg"><path d="M310.312 212.65c27.12 3.003 41.445 6.089 41.567 9.267v.096l-.043-.166c-.334 2.549-4.935 3.52-8.747 1.829-2.668-1.184-13.886-3.343-25.992-5.065l-1.04-.147-1.565-.215-1.045-.14-.524-.07-1.046-.135a313.885 313.885 0 0 0-10.23-1.155c-37.714-3.63-81.318-1.741-122.686 5.227-26.943 4.604-53.433 12.97-61.478 19.555-2.82 2.288-6.592 2.7-7.088.71-.248-.994.872-2.33 4.645-4.68 15.093-9.4 47.261-18.3 82.908-22.961 39.875-5.186 77.51-5.764 112.364-1.95ZM80.967 23.534c0 .321-1.602 2.724-4.326 6.248-5.767 7.53-12.015 16.502-16.821 24.032a136.99 136.99 0 0 0-2.151 3.438l-.366.606-.183.305-.546.918c-.168.283-.335.566-.5.85l-.329.563c-2.612 4.5-4.79 8.648-4.577 8.86.16.16 2.564-1.442 5.287-3.525 5.127-4.005 11.375-7.369 13.458-7.369.64 0 1.602.32 2.243.641.939.626 1.113 1.405 1.419 6.076l.022.332.16 3.364c.16 2.403.642 2.403 2.244 2.564 1.602.16 2.883-.32 6.248-2.083 4.005-2.083 13.137-8.65 14.579-9.452.856-.514 1.529-.845 2.043-.895 1.64-.944 3.33-1.509 4.844-1.509.64 0 1.282.161 1.923.481 2.723 1.282 2.563 4.166-.641 6.89-1.763 1.601-3.685 1.922-5.608 2.082-3.204.16-3.524-.32-4.005.641-.32.64-.48 1.922-.32 2.883.16 2.564 2.243 3.845 6.248 3.845 5.519 0 12.748-3.38 23.364-11.585l.508-.394-.001-.036c5.768-4.486 6.408-3.204 6.248-2.243 0 .48-1.602 2.403-5.287 5.287-6.1 4.78-11.223 8.034-15.72 9.914 8.544-.41 17.7-.036 23.628 1.12 19.225 3.846 32.256 13.245 38.45 27.557 1.923 4.485 2.777 15.807 1.496 21.574-5.34 24.993-33.324 56.82-69.21 78.823-13.458 8.33-24.566 13.244-36.101 16.235-7.903 2.136-20.08 2.349-26.488.427-11.962-3.418-17.09-12.817-13.244-24.138 4.7-14.312 17.303-25.847 37.169-34.178 4.913-2.136 6.408-2.991 6.835-4.272.377-1.007 3.793-8.682 7.366-16.567l.351-.776.565-1.242.375-.825c2.062-4.53 4.06-8.871 5.442-11.778 3.845-7.69 13.457-23.711 18.584-30.76 3.845-5.34 4.913-6.408 6.195-6.195 2.777.428 2.35 2.777-1.495 8.33-4.914 6.837-13.244 20.508-17.517 28.625-.298.58-.624 1.222-.971 1.915l-.428.856a682.676 682.676 0 0 0-5.256 10.837l-.577 1.215-.358.758c-3.09 6.55-5.845 12.618-6.272 14.034l-.022.077c-.428 1.496-.428 1.496 1.28 1.068 10.468-2.35 24.78-1.495 26.703 1.496 1.922 2.99-.214 4.485-3.418 2.563-2.777-1.71-15.166-1.71-22.216 0-2.777.64-5.126 1.495-5.34 1.709-1.495 2.136-5.127 13.67-5.34 17.089-.214 4.486-1.496 5.98-3.632 4.486-1.71-1.282-1.495-6.41.855-13.244 1.068-3.204 1.922-5.981 1.709-6.195-.253-.252-3.996 1.501-8.077 3.64l-.558.294-.841.447-.625.337c-2.182 1.18-4.314 2.394-5.92 3.399-11.962 7.69-20.507 20.08-20.507 29.692 0 9.186 7.263 14.099 20.507 14.099 18.37 0 44.858-12.817 71.346-34.606 22.857-18.797 38.664-39.518 43.577-57.247 1.495-5.341 1.495-15.38 0-19.866-4.272-13.458-17.73-23.284-36.1-26.488-14.1-2.35-27.984-1.282-45.713 3.418-22.857 6.194-39.52 14.525-49.772 25.206-4.486 4.486-9.826 13.03-9.826 15.593 0 2.063-.996 3.13-2.603 3.008l-.174-.017-.427.64c-2.35-.426-2.35-4.912.213-9.612 2.777-5.34 7.904-11.748 12.176-15.593 12.521-10.853 37.887-21.5 61.159-25.57-4.346-1.222-6.587-3.9-6.158-7.467.084-.736.276-1.48.557-2.218-4.158 2.95-8.841 5.801-11.45 6.704-4.325 1.441-8.971.48-10.093-2.083-.32-.8-.641-3.365-.641-5.607 0-2.243-.16-4.166-.48-4.166-1.282 0-7.851 4.166-14.1 8.972-3.844 3.044-7.368 5.447-7.85 5.447-.48 0-1.281-.32-1.601-.64-.961-.962-.641-2.404 1.922-8.172 5.768-12.656 27.556-44.057 31.4-45.178 1.443-.48 2.404-.16 2.084 1.281Zm389.149 92.368c-1.922 3.204-3.418 5.98-3.418 6.195 0 .21 9.784.238 22.175.444l.449.008.019-.025c24.352.213 25.634.427 25.207 3.204-.214 1.495-4.06 2.136-5.554 1.068-.428-.321-9.827-.534-19.76-.588l-1.194-.005-1.196-.005-1.79-.003h-1.776l-.902.002c-7.485.018-14.133.138-16.105.385-2.563.428-2.99.855-5.34 4.913-.935 1.468-2.537 4.105-4.18 6.867l-.494.831-.493.833a444.647 444.647 0 0 0-1.882 3.218c-33.11 56.82-38.664 68.569-38.664 72.628 0 1.495-.214 3.204-.641 3.63-1.068 1.283-4.272 1.07-5.126-.426-1.496-2.35 6.835-20.08 19.652-42.508 1.375-2.439 2.897-5.115 4.436-7.815l1.156-2.025 1.151-2.015.568-.996-.496.408c-4.013 3.28-8.676 6.631-12.047 8.598-9.4 5.34-14.74 5.98-19.012 2.563-2.278-1.865-2.548-2.524-2.563-5.484V165.886l-5.127 3.845c-9.826 7.476-16.875 10.04-20.72 7.69-2.139-1.283-2.256-4.142-.956-7.493-11.422 7.682-18.384 9.84-23.717 7.707-2.991-1.282-3.632-3.845-2.137-9.186.64-2.563 1.709-5.981 2.137-7.476.427-1.495.64-2.777.427-2.991-.641-.641-5.981 2.564-13.244 7.69-6.622 4.7-9.185 5.768-11.322 4.486-1.495-.854-1.71-2.777-.854-8.972.427-3.845.427-4.485-.427-4.485-2.777 0-11.535 6.835-20.934 16.234-3.632 3.632-4.7 4.272-6.41 4.059-1.707-.214-1.921-.427-1.921-2.991 0-1.958 1.153-5.724 2.721-9.678-3.956 3.215-8.498 6.47-11.8 8.397-9.4 5.34-14.74 5.98-19.011 2.563-2.279-1.865-2.548-2.524-2.563-5.484V165.886l-5.127 3.845c-9.826 7.476-16.875 10.04-20.72 7.69-1.976-1.186-2.227-3.717-1.228-6.738l-.116.074c-10.343 6.649-18.334 9.08-25.464 7.946-7.263-1.282-11.108-5.127-10.467-10.467.331-2.9 1.915-5.895 4.116-8.476-2.299.627-4.902 1.081-7.264 1.213-6.194.427-9.4-1.282-11.962-3.845-1.068-1.068-2.136-1.923-2.563-1.923-.657 0-3.977 2.986-8.125 7.124l-.546.546a279.485 279.485 0 0 0-5.183 5.352l-.59.627-.295.315-.857.92-.142.154-.71.77c-3.632 4.058-7.05 7.262-7.69 7.262-.641 0-1.496-.427-1.923-.854-1.282-1.282 1.068-7.05 6.622-16.021 4.699-7.69 6.195-8.972 8.117-7.263 1.068.855 1.068 1.068-.427 3.632-1.71 2.563-1.495 2.563 4.913-2.564 7.904-6.194 8.972-6.408 11.535-2.136 1.709 2.564 2.777 3.845 7.904 3.845 2.824 0 5.458.008 8.442-.891l.53-.168c3.13-1.148 5.124-1.528 6.105-1.086 2.246-1.328 4.577-2.127 6.655-2.127.854 0 1.709.214 2.563.64 3.632 1.71 3.418 5.555-.854 9.186-2.35 2.136-4.913 2.564-7.477 2.777-1.788.09-2.903.029-3.641.023h-.233c-.842.01-1.123.146-1.466.832-.427.854-.641 2.563-.427 3.845.214 3.417 2.99 5.126 8.33 5.126 7.026 0 15.938-4.339 29.04-14.256 2.083-2.139 4.523-4.1 7.167-5.61 2.99-1.71 5.768-2.563 8.117-2.563 2.891 0 5.183 1.197 6.49 3.592l.132.253 1.068 2.136 2.136-1.71c2.35-1.921 3.205-2.135 4.486-.853.855.854.64 1.709-1.281 5.126-2.777 5.127-3.632 8.972-2.35 10.895.854 1.068 1.495 1.28 4.058 1.068 4.914-.427 10.895-3.632 20.72-11.535 2.652-2.04 4.324-3.866 5.957-4.957l.233-.15.006-.02c.333-.228.645-.436.939-.624 1.556-2.924 3.01-5.072 3.867-5.357.64-.214 1.495 0 1.922.427 1.068.855.428 2.777-3.417 11.108-1.496 2.99-2.564 5.554-2.35 5.554.214 0 2.35-1.71 4.913-3.845 9.399-8.117 14.098-11.108 18.157-11.108 4.624 0 5.94 2.482 4.758 9.687l-.06.353-.64 3.63 5.982-4.271c8.33-5.981 11.748-7.69 15.166-8.117 2.563-.214 3.204 0 4.272 1.495 1.282 1.495 1.282 1.922-.64 8.758-2.777 9.399-2.777 8.972-1.71 10.253.855 1.068 1.282 1.068 4.486.214 5.982-1.71 11.749-5.767 23.925-14.953 2.38-1.786 4.19-3.079 5.576-3.925.31-.193.624-.38.94-.561 2.99-1.71 5.768-2.563 8.118-2.563 2.89 0 5.182 1.197 6.49 3.592l.132.253 1.068 2.136 2.136-1.71c2.35-1.921 3.204-2.135 4.486-.853.854.854.64 1.709-1.282 5.126-2.777 5.127-3.631 8.972-2.35 10.895.855 1.068 1.496 1.28 4.059 1.068 4.913-.427 10.894-3.632 20.72-11.535 2.65-2.04 4.355-3.866 5.99-4.957l.234-.15-.03-.02c1.226-.839 2.18-1.405 2.912-1.721.633-1.118 1.2-2.122 1.68-2.978.997-1.78 2.16-3.822 3.355-5.903l.654-1.138c2.185-3.796 4.393-7.59 5.817-10.048a106.685 106.685 0 0 0 2.787-5.095l.19-.38c.634-1.282.97-2.114.868-2.215-.055-.056-.556-.083-1.403-.085h-.356c-2.996.011-9.387.261-15.864.599l-.94.05c-6.579.351-13.082.785-16.042 1.145-5.126.64-5.767.64-6.622-.428-1.495-1.71 0-2.563 6.409-3.417 3.31-.428 10.036-.962 16.79-1.39l1.35-.083c6.067-.371 11.974-.644 15.25-.663l.36-.001h4.273l4.699-7.262c3.418-5.127 5.127-7.263 6.195-7.477 2.99-.427 2.777 1.923-.855 7.904Zm53.457 37.168c1.709 2.564 2.777 3.845 7.904 3.845 2.814 0 5.25-.379 8.199-1.314l.559-.181.213.427c2.783-1.013 4.667-1.425 5.741-1.194 1.548-1.977 2.663-2.864 3.679-2.864.64 0 1.282.427 1.923 1.068.854.854.427 1.922-2.777 7.049-5.981 9.612-6.408 13.244-1.282 13.244 4.642 0 16.576-5.21 30.246-13.982l.514-.33h-.213c1.973-1.295 3.607-2.288 4.945-2.993 2.509-3.693 3.846-4.203 5.63-2.775 1.068.855.854 1.282-1.71 5.554-1.494 2.563-3.203 5.768-3.844 7.263-1.282 2.99-1.495 6.408-.427 6.408s7.263-4.486 15.807-11.321c7.69-6.195 9.613-7.05 10.68-4.7.214.428-.64 3.632-1.922 6.836s-2.35 6.622-2.35 7.476c0 5.554 11.535 1.068 30.333-11.748 1.709-1.282 3.418-2.35 4.7-3.204.11-.08.222-.155.334-.226 1.462-2.69 2.81-4.631 3.62-4.901.642-.214 1.496 0 1.924.427 1.068.855.427 2.777-3.418 11.108-1.495 2.99-2.563 5.554-2.35 5.554.214 0 2.35-1.71 4.913-3.845 9.399-8.117 14.099-11.108 18.157-11.108 4.625 0 5.94 2.482 4.759 9.687l-.06.353-.64 3.63 5.98-4.271c8.332-5.981 11.75-7.69 15.167-8.117 2.564-.214 3.205 0 4.273 1.495 1.28 1.495 1.28 1.922-.641 8.758-2.777 9.399-2.777 8.972-1.71 10.253.855 1.068 1.283 1.068 4.487.214 5.98-1.71 11.748-5.767 23.924-14.953 6.726-5.044 8.902-6.16 9.783-4.363l.043.09h.428c.052.122.097.237.13.349l.026.095c.292 1.216-.971 2.239-9.77 8.742-16.02 11.963-24.778 15.594-31.186 13.03-2.991-1.281-3.632-3.844-2.136-9.185.64-2.563 1.709-5.981 2.136-7.476.427-1.495.64-2.777.427-2.991-.641-.641-5.981 2.564-13.244 7.69-6.622 4.7-9.185 5.768-11.321 4.486-1.496-.854-1.71-2.777-.855-8.972.427-3.845.427-4.485-.427-4.485-2.777 0-11.535 6.835-20.934 16.234-3.631 3.632-4.7 4.272-6.408 4.059-1.71-.214-1.923-.427-1.923-2.991 0-2.227 1.49-6.79 3.388-11.312-.492.333-1.017.686-1.576 1.059-11.535 7.903-22.215 13.03-27.556 12.817-6.087-.21-7.637-4.34-7.283-8.132l.02-.2.428-4.272-5.768 4.7c-9.4 7.476-14.312 8.758-17.516 4.913-1.562-1.91-.868-5.935 1.74-11.274-5.048 3.214-10.88 6.497-15.733 8.924-8.971 4.486-12.39 5.554-16.875 5.554-2.991 0-4.06-.427-5.981-1.922-1.71-1.282-2.35-2.35-2.35-4.06 0-2.606 2.07-7.847 4.621-11.837-2.75 1.027-6.493 1.83-9.77 2.012-6.194.427-9.398-1.282-11.961-3.845-1.068-1.068-2.136-1.923-2.564-1.923-.652 0-3.93 2.944-8.037 7.037l-.53.528a282.739 282.739 0 0 0-6.172 6.399l-.571.613-.57.615-.568.616c-3.631 4.058-7.05 7.262-7.69 7.262-.64 0-1.495-.427-1.922-.854-1.177-1.177.705-6.13 5.315-13.87-9.624 5.074-17.37 6.82-25.29 6.82-3.63 0-4.485.214-4.912 1.069-.641 1.709-6.408 6.408-9.185 7.263-3.845 1.28-6.195 1.068-8.972-.855-4.913-3.631-3.631-11.108 3.204-19.438 1.709-2.137 3.632-4.06 4.272-4.273.64-.213 1.923-.854 2.99-1.495 1.283-.854 2.992-1.282 4.7-1.282 1.709 0 3.418.428 4.486 1.282 3.344 3.134 3.825 5.656 2.045 10.363l-.122.318-1.068 2.99h3.418c7.049 0 16.02-2.563 25.419-8.331 1.746-1.075 3.154-1.917 4.298-2.527 1.846-2.28 2.906-2.417 4.14-1.318.611.488.873.767.706 1.396.149.529-.174 1.247-1.093 2.17l-.04.066c-1.708 2.563-1.494 2.563 4.914-2.564 7.903-6.194 8.972-6.408 11.535-2.136Zm-68.036 9.826-1.71 2.99c-2.35 4.06-2.99 6.837-1.922 8.759 1.068 1.923 2.564 1.923 5.98.214 1.414-.606 3.207-1.973 4.122-3.024l.152-.181 1.495-1.708-1.923-1.068c-1.407-1.007-3.382-2.2-4.322-3.406l-.164-.226-1.708-2.35Zm-211.742 9.827c-.641 2.776.64 2.563 6.194-.641 2.252-1.434 6.687-3.818 9.497-5.895l.357-.268-.027-.032c4.913-3.631 5.126-3.845 4.485-5.981-.427-1.282-1.068-2.564-1.495-2.777a1.629 1.629 0 0 0-1.068-.427c-4.7-.214-16.448 9.826-17.943 16.02Zm135.858 0c-.641 2.776.64 2.563 6.195-.641 2.252-1.434 6.68-3.818 9.489-5.895l.357-.268-.02-.032c4.913-3.631 5.127-3.845 4.486-5.981-.427-1.282-1.068-2.564-1.495-2.777a1.63 1.63 0 0 0-1.068-.427c-4.7-.214-16.448 9.826-17.944 16.02Zm85.71-16.876h-.641c-2.136.214-4.486 2.99-4.486 5.34 0 1.496.64 2.35 2.35 3.632 1.28.854 2.563 1.282 2.99 1.068.408-.205 1.012-1.778 1.439-3.409l.057-.222h.213c.855-4.06.214-6.195-1.922-6.41Zm-244.958.214h-.427c-1.027 0-3.245.524-5.313 2.083l-.247.193v-.015c-1.495 1.282-1.703 2.01-1.062 2.438 1.282.64 1.282.64 4.059-.641 2.136-1.068 3.845-3.417 2.99-4.058ZM74.849.057c.902.216 1.07.526 1.007 1.66l-.011.176-.272 1.587 3.858-.05.06-.001h.342c2.2.01 8.03.182 14.206.453l.905.041.909.042.454.021.909.044c20.49.951 40.218 3.615 42.8 5.723 1.075.717.644 2.293-.68 2.843-.832.424-1.152.401-1.747-.283-1.475-1.869-6.247-2.524-33.736-4.447-14.22-.993-27.046-1.734-28.736-1.694l-.053.002-2.591.301-10.751 15.951-.139.205-1.529 2.256-.555.817-.554.814A1881.116 1881.116 0 0 1 47.95 42.501C32.029 65.8 21.259 84.318 14.718 99.761c-.421.966-.767 1.777-1.046 2.464l-.177.44c-.945 2.393-.969 3.12-.536 3.878.573 1.004.55 1.323-.305 2.066-1.3.987-2.686 1.083-3.584.186l-.114-.123.137.331c-1.337-1.539 2.37-10.916 10.542-26.726a348.654 348.654 0 0 1 3.082-5.897l.435-.806.218-.402.438-.802c.147-.268.294-.535.443-.802l.448-.804c5.736-10.235 13.129-21.411 33.996-51.982l.637-.932 8.952-13.186-2.717-.19c-.989-.069-3.117-.104-5.804-.11h-1.45a594.21 594.21 0 0 0-7.29.058l-.925.013c-2.768.043-5.5.103-7.827.177-18.253.746-26.358 1.292-33.35 2.174l-.516.066-.513.068-.774.105-.514.071c-3.081.427-5.831.717-6.14.534-.777-.375-.516-1.802.328-2.386.667-.38 5.19-1.06 10.187-1.612l.7-.077.704-.074a207.71 207.71 0 0 1 2.116-.21l.742-.067c1.108-.1 2.193-.187 3.217-.258 11.913-.904 35.164-1.639 45.847-1.58l.516.004 5.616.072 1.572-1.817C73.228.265 73.9-.17 74.849.057Zm29.186 60.004h-.32c-.763 0-2.339.365-3.871 1.506l-.23.177-.064.08c-1.122.96-1.282 1.441-.801 1.761.96.481.96.481 3.044-.48 1.602-.8 2.883-2.564 2.242-3.044Z" fill="#0A0B09" fill-rule="evenodd"/></svg>